<?xml version="1.0" encoding="utf-8"?>
<!-- Generator: Adobe Illustrator 25.4.1, SVG Export Plug-In . SVG Version: 6.00 Build 0)  -->
<svg version="1.1" id="Layer_1" xmlns:lucid="lucid"
	 xmlns="http://www.w3.org/2000/svg" xmlns:xlink="http://www.w3.org/1999/xlink" x="0px" y="0px" viewBox="0 0 1020 740"
	 style="enable-background:new 0 0 1020 740;" xml:space="preserve">
<style type="text/css">
	.st0{fill:#FFFFFF;stroke:#5E5E5E;stroke-width:3;}
	.st1{fill:#5E5E5E;}
	.st2{fill:none;stroke:#83BBE5;stroke-width:2;}
	.st3{fill:#83BBE5;}
	.st4{fill:#83BBE5;stroke:#83BBE5;stroke-width:2;}
	.st5{fill:none;stroke:#5E5E5E;stroke-width:2;}
	.st6{fill:#5E5E5E;stroke:#5E5E5E;stroke-width:2;}
	.st7{fill:none;}
	.st8{fill:#333333;}
	.st9{font-family:'AkagiPro-SemiBold';}
	.st10{font-size:24px;}
	.st11{font-family:'AkagiPro-Medium';}
	.st12{font-size:18px;}
	.st13{font-size:22px;}
	.st14{font-size:20px;}
</style>
<path class="st0" d="M740,26c0-3.3,2.7-6,6-6h248c3.3,0,6,2.7,6,6v668c0,3.3-2.7,6-6,6H746c-3.3,0-6-2.7-6-6V26z"/>
<path class="st0" d="M21.6,26c0-3.3,2.7-6,6-6h648c3.3,0,6,2.7,6,6v688c0,3.3-2.7,6-6,6h-648c-3.3,0-6-2.7-6-6V26z"/>
<path class="st0" d="M80,446c0-3.3,2.7-6,6-6h148c3.3,0,6,2.7,6,6v114c-26.7-20-43.4-20-53.4-20c-16,0-37.3,20-53.3,20
	c-9.9,0-26.7,0-53.3-20V446z"/>
<path class="st0" d="M420,526c0-3.3,2.7-6,6-6h168c3.3,0,6,2.7,6,6v96c-30.1-17-48.8-17-60.1-17c-18,0-41.9,17-59.9,17
	c-11.2,0-30.1,0-59.9-17V526z"/>
<path class="st0" d="M430,535c0-3.3,2.7-6,6-6h168c3.3,0,6,2.7,6,6v96c-30.1-17-48.8-17-60.1-17c-18,0-41.9,17-59.9,17
	c-11.2,0-30.1,0-59.9-17V535z"/>
<path class="st0" d="M440,544c0-3.3,2.7-6,6-6h168c3.3,0,6,2.7,6,6v96c-30.1-17-48.8-17-60.1-17c-18,0-41.9,17-59.9,17
	c-11.2,0-30.1,0-59.9-17V544z"/>
<path class="st0" d="M420,346c0-3.3,2.7-6,6-6h168c3.3,0,6,2.7,6,6v96c-30.1-17-48.8-17-60.1-17c-18,0-41.9,17-59.9,17
	c-11.2,0-30.1,0-59.9-17V346z"/>
<path class="st0" d="M430,355c0-3.3,2.7-6,6-6h168c3.3,0,6,2.7,6,6v96c-30.1-17-48.8-17-60.1-17c-18,0-41.9,17-59.9,17
	c-11.2,0-30.1,0-59.9-17V355z"/>
<path class="st0" d="M440,364c0-3.3,2.7-6,6-6h168c3.3,0,6,2.7,6,6v96c-30.1-17-48.8-17-60.1-17c-18,0-41.9,17-59.9,17
	c-11.2,0-30.1,0-59.9-17V364z"/>
<path class="st1" d="M331,494.5l-0.9,3.4l-2.5,2.5l-3.4,0.9h-81.6v-2h81.4l2.6-0.7l1.8-1.8l0.7-2.6v-33.4h2 M400,401h-63.9l-2.6,0.7
	l-1.8,1.8l-0.7,2.6v33.4h-2v-33.6l0.9-3.4l2.5-2.5l3.4-0.9H400"/>
<path class="st1" d="M242.5,501.3h-1v-2h1 M415.3,400l-14.3,4.6v-9.3L415.3,400z"/>
<path class="st1" d="M418.5,400l-18.5,6v-12 M402,403.3l10-3.3l-10-3.3"/>
<path class="st1" d="M331,573.9l0.7,2.6l1.8,1.8l2.6,0.7H400v2h-64.1l-3.4-0.9l-2.5-2.5l-0.9-3.4v-23.5h2 M327.5,499.9l2.5,2.5
	l0.9,3.4v23.5h-2v-23.2l-0.7-2.6l-1.8-1.8l-2.6-0.7h-81.4v-2h81.6"/>
<path class="st1" d="M242.5,501h-1v-2h1 M415.3,580l-14.3,4.6v-9.3L415.3,580z"/>
<path class="st1" d="M418.5,580l-18.5,6v-12 M402,583.3l10-3.3l-10-3.3"/>
<path class="st0" d="M80,126c0-3.3,2.7-6,6-6h148c3.3,0,6,2.7,6,6v94c-26.7-16.7-43.4-16.7-53.4-16.7c-16,0-37.3,16.7-53.3,16.7
	c-9.9,0-26.7,0-53.3-16.7V126z"/>
<path class="st1" d="M161,420h-2v-83.6h2 M161,315.1h-2V214h2"/>
<path class="st1" d="M161,214h-2v-0.6l2-0.8 M160,435.3l-4.6-14.3h9.3L160,435.3z"/>
<path class="st1" d="M160,438.5l-6-18.5h12 M156.7,422l3.3,10l3.3-10"/>
<path class="st0" d="M410,126c0-3.3,2.7-6,6-6h208c3.3,0,6,2.7,6,6v99.2c-36.7-17.6-59.6-17.6-73.5-17.6c-22,0-51.3,17.6-73.3,17.6
	c-13.6,0-36.7,0-73.3-17.6V126z"/>
<path class="st1" d="M278.6,171.2h-36.1v-2h36.1 M390,171.2h-49.3v-2H390"/>
<path class="st1" d="M242.5,171.2h-1v-2h1 M405.3,170.2l-14.3,4.6v-9.3L405.3,170.2z"/>
<path class="st1" d="M408.5,170.2l-18.5,6v-12 M392,173.5l10-3.2l-10-3.3"/>
<path class="st0" d="M780,206c0-3.3,2.7-6,6-6h148c3.3,0,6,2.7,6,6v74c-26.7-13.4-43.4-13.4-53.4-13.4c-16,0-37.3,13.4-53.3,13.4
	c-9.9,0-26.7,0-53.3-13.4V206z"/>
<path class="st0" d="M780,446c0-3.3,2.7-6,6-6h148c3.3,0,6,2.7,6,6v74c-26.7-13.4-43.4-13.4-53.4-13.4c-16,0-37.3,13.4-53.3,13.4
	c-9.9,0-26.7,0-53.3-13.4V446z"/>
<path class="st0" d="M780,326c0-3.3,2.7-6,6-6h148c3.3,0,6,2.7,6,6v74c-26.7-13.4-43.4-13.4-53.4-13.4c-16,0-37.3,13.4-53.3,13.4
	c-9.9,0-26.7,0-53.3-13.4V326z"/>
<path class="st0" d="M780,566c0-3.3,2.7-6,6-6h148c3.3,0,6,2.7,6,6v74c-26.7-13.4-43.4-13.4-53.4-13.4c-16,0-37.3,13.4-53.3,13.4
	c-9.9,0-26.7,0-53.3-13.4V566z"/>
<path class="st0" d="M780,86c0-3.3,2.7-6,6-6h148c3.3,0,6,2.7,6,6v74c-26.7-13.4-43.4-13.4-53.4-13.4c-16,0-37.3,13.4-53.3,13.4
	c-9.9,0-26.7,0-53.3-13.4V86z"/>
<path class="st2" d="M622.5,400.2H654c3.3,0,6,2.7,6,6V594c0,3.3,2.7,6,6,6h94"/>
<path class="st3" d="M622.5,401.2h-1v-2h1"/>
<path class="st4" d="M775.3,600l-14.3,4.6v-9.3L775.3,600z"/>
<path class="st2" d="M622.5,580.2H694c3.3,0,6-2.7,6-6V246c0-3.3,2.7-6,6-6h54"/>
<path class="st3" d="M622.5,581.2h-1v-2h1"/>
<path class="st4" d="M775.3,240l-14.3,4.6v-9.3L775.3,240z"/>
<path class="st5" d="M860,275.6V300"/>
<path class="st1" d="M861,275.7h-2V275l2-0.6"/>
<path class="st6" d="M860,315.3l-4.6-14.3h9.3L860,315.3z"/>
<path class="st5" d="M860,437.5v-24.4"/>
<path class="st1" d="M861,438.5h-2v-1h2"/>
<path class="st6" d="M860,397.9l4.6,14.3h-9.3L860,397.9z"/>
<path class="st2" d="M622.5,580H694c3.3,0,6-2.7,6-6v-89.5c0-3.3,2.7-6,6-6h54"/>
<path class="st3" d="M622.5,581h-1v-2h1"/>
<path class="st4" d="M775.3,478.5l-14.3,4.6v-9.3L775.3,478.5z"/>
<path class="st2" d="M942.5,360.2h33c3.3,0,6,2.7,6,6V595c0,3.3-2.7,6-6,6H960"/>
<path class="st3" d="M942.5,361.2h-1v-2h1"/>
<path class="st4" d="M944.7,601l14.3-4.6v9.3L944.7,601z"/>
<path class="st2" d="M160,117.5V96c0-3.3,2.7-6,6-6h584.5c3.3,0,6,2.7,6,6v19c0,1.9,1.6,3.5,3.5,3.5"/>
<path class="st3" d="M161,118.5h-2v-1h2"/>
<path class="st4" d="M775.3,118.5l-14.3,4.6v-9.3L775.3,118.5z"/>
<path class="st7" d="M440,680h100v20H440V680z"/>
<g>
	<g transform="matrix(1,0,0,1,660,960) translate(4.351851851851848 17.77777777777778)">
		<g id="x">
			<g transform="matrix(0.06172839506172839,0,0,0.06172839506172839,0,0)">
				<path id="I_00000042720469122872587650000003712360973536129920_" class="st8" d="M451.5,685.8c3.4,0.1,4.3,2.5,4.3,6
					c0,3.5-1,6-4.3,6.2c-1.9,0-3-0.8-3.7-2.1l0.1,6.5h-2l-0.1-16.4h1.9l0.1,1.9C448.4,686.6,449.5,685.8,451.5,685.8z M451,696.5
					c2.5,0,2.8-2.1,2.8-4.6s-0.4-4.5-2.8-4.6c-2.6,0-3.1,2-3.1,4.7C447.8,694.7,448.4,696.5,451,696.5"/>
			</g>
			<g transform="matrix(0.06172839506172839,0,0,0.06172839506172839,12.345679012345679,0)">
				<path id="z_00000157992988378196316250000006362192610549098168_" class="st8" d="M463.7,687.7c-4.8-1-3.3,5.6-3.5,10.1h-2
					l-0.1-11.7h1.9c0.1,0.7-0.1,1.8,0.1,2.4c0.4-1.7,1.4-3,3.6-2.5V687.7"/>
			</g>
			<g transform="matrix(0.06172839506172839,0,0,0.06172839506172839,19.691358024691358,0)">
				<path id="J_00000097471369251090544290000014411405731160100783_" class="st8" d="M470.2,685.8c3.8-0.1,5.2,2.3,5.2,6.1
					c0.1,3.9-1.7,6.1-5.3,6.1c-3.6,0-5.1-2.4-5.2-6.1C465,687.8,466.7,685.8,470.2,685.8z M470.2,696.5c2.7,0.1,3.3-1.9,3.3-4.6
					c0-2.7-0.5-4.6-3.1-4.6s-3.3,2-3.3,4.6S467.6,696.5,470.2,696.5"/>
			</g>
			<g transform="matrix(0.06172839506172839,0,0,0.06172839506172839,32.03703703703704,0)">
				<path id="R_00000065045035935350610570000002461656384361825972_" class="st8" d="M481.6,685.8c1.9,0,3,0.8,3.7,2l-0.1-6.2h2
					l0.1,16.1h-1.9c-0.1-0.6,0-1.4-0.2-1.9c-0.6,1.4-1.7,2.2-3.6,2.2c-3.3,0-4.3-2.4-4.3-6C477.3,687.9,478.7,685.8,481.6,685.8z
					 M482.2,687.3c-2.5,0-2.8,2.1-2.8,4.6c0,2.5,0.4,4.6,2.8,4.6c2.6,0,3.1-2,3.1-4.7C485.3,689.2,484.7,687.2,482.2,687.3"/>
			</g>
			<g transform="matrix(0.06172839506172839,0,0,0.06172839506172839,44.382716049382715,0)">
				<path id="S_00000110472101103915255990000016492471414805473929_" class="st8" d="M493.9,698c-5.5,0.2-3.3-7.2-3.8-12h2v7.4
					c0,1.9,0.4,3.1,2.4,3c4.4-0.1,2.8-6.2,3.1-10.4h1.9l0.1,11.7h-1.9c-0.1-0.6,0.1-1.5-0.1-2C496.9,697.1,495.9,698,493.9,698"/>
			</g>
			<g transform="matrix(0.06172839506172839,0,0,0.06172839506172839,56.72839506172839,0)">
				<path id="E_00000020371800377515931910000006405612952796149385_" class="st8" d="M507,687.3c-2.5,0-3,2-3,4.5
					c0,2.5,0.6,4.6,3,4.6c1.5,0,2.5-0.9,2.7-2.3l2,0.1c-0.4,2.3-1.9,3.8-4.6,3.8c-3.6,0-4.7-2.5-5.1-6.1c-0.6-5.7,6.2-8.1,9.1-4
					c0.2,0.4,0.3,0.9,0.4,1.4l-2,0.2C509.3,688.2,508.5,687.3,507,687.3"/>
			</g>
			<g transform="matrix(0.06172839506172839,0,0,0.06172839506172839,67.8395061728395,0)">
				<path id="H_00000053538459728463457450000017810035762838580668_" class="st8" d="M518.4,685.8c3.9,0,5.3,2.6,5.2,6.5h-8.3
					c0,2.5,0.9,4.1,3.3,4.2c1.6,0.1,2.7-0.7,3-1.8l1.7,0.5c-0.7,1.7-2.3,2.8-4.8,2.8c-3.6,0-5.4-2.3-5.4-6.2
					C513.2,688.1,514.7,685.8,518.4,685.8z M521.6,690.8c0.4-3.7-4.7-4.8-6-1.7c-0.2,0.4-0.4,1-0.4,1.7H521.6"/>
			</g>
			<g transform="matrix(0.06172839506172839,0,0,0.06172839506172839,80.18518518518519,0)">
				<path id="F_00000015352026961564121820000017188631453972561037_" class="st8" d="M532.9,689c-0.2-2.1-5.3-2.3-5.4,0
					c0.9,3.3,7.1,0.7,7.3,5.6c0.2,4.8-9.3,4.6-9.7,0.5l1.7-0.3c0.2,2.2,6,2.8,6,0c-0.6-3.5-7-0.9-7.3-5.6c-0.2-3.5,5.1-3.9,7.5-2.6
					c0.7,0.4,1.3,1.2,1.5,2.2"/>
			</g>
		</g>
	</g>
</g>
<path class="st2" d="M554.2,691.2h80.5 M554.2,691.2h-1"/>
<path class="st4" d="M649.9,691.2l-14.3,4.7v-9.3L649.9,691.2z"/>
<text transform="matrix(1 0 0 1 208.2292 55.2118)" class="st9 st10">Responsible Data Science Policy</text>
<text transform="matrix(1 0 0 1 125.1234 172.328)" class="st11 st10">Policy</text>
<text transform="matrix(1 0 0 1 126.8448 489.0904)"><tspan x="0" y="0" class="st11 st10">Parent </tspan><tspan x="-18.8" y="20" class="st11 st10">Procedure</tspan></text>
<text transform="matrix(1 0 0 1 282.6368 176.2701)" class="st9 st12">defines</text>
<text transform="matrix(1 0 0 1 133.9567 331.3441)" class="st9 st12">defines</text>
<text transform="matrix(1 0 0 1 300.6864 543.6442)" class="st9 st12">triages</text>
<text transform="matrix(1 0 0 1 300.3264 454.47)" class="st9 st12">triages</text>
<text transform="matrix(1 0 0 1 466.4192 580)"><tspan x="0" y="0" class="st11 st10">Adjudicative </tspan><tspan x="-13.2" y="20" class="st11 st10">Sub-Procedure</tspan></text>
<text transform="matrix(1 0 0 1 469.935 397.8699)"><tspan x="0" y="0" class="st11 st10">Prescriptive </tspan><tspan x="-16.7" y="20" class="st11 st10">Sub-Procedure</tspan></text>
<text transform="matrix(1 0 0 1 461.5286 163.0219)"><tspan x="0" y="0" class="st11 st13">Concept and </tspan><tspan x="-33.6" y="20" class="st11 st13">Technique Inventory</tspan></text>
<text transform="matrix(1 0 0 1 829.7558 55.2121)" class="st9 st10">Artifacts</text>
<text transform="matrix(1 0 0 1 801.7078 123.1401)" class="st11 st14">Exception Log</text>
<text transform="matrix(1 0 0 1 799.8485 240.0002)" class="st11 st14">Proposal Form</text>
<text transform="matrix(1 0 0 1 806.5179 361.2003)" class="st11 st14">Review Form</text>
<text transform="matrix(1 0 0 1 804.6281 481.0602)" class="st11 st14">Release Form</text>
<text transform="matrix(1 0 0 1 813.2776 600.9848)" class="st11 st14">Review Log</text>
<image style="overflow:visible;opacity:0.5;" width="3200" height="3200" xlink:href="licensio-logo-800-4x.png"  transform="matrix(4.687500e-02 0 0 4.687500e-02 26.2569 614.0558)">
</image>
</svg>
